<svg width="20" height="20" viewBox="0 0 20 20" fill="none" xmlns="http://www.w3.org/2000/svg">
<path d="M13.3333 3.33337H15C15.442 3.33337 15.866 3.50897 16.1785 3.82153C16.4911 4.13409 16.6667 4.55801 16.6667 5.00004V16.6667C16.6667 17.1087 16.4911 17.5327 16.1785 17.8452C15.866 18.1578 15.442 18.3334 15 18.3334H5C4.55797 18.3334 4.13405 18.1578 3.82149 17.8452C3.50893 17.5327 3.33334 17.1087 3.33334 16.6667V5.00004C3.33334 4.55801 3.50893 4.13409 3.82149 3.82153C4.13405 3.50897 4.55797 3.33337 5 3.33337H6.66667" stroke="#00A5AB" stroke-width="2" stroke-linecap="round" stroke-linejoin="round"/>
<path d="M12.5 1.66663H7.5C7.03976 1.66663 6.66666 2.03972 6.66666 2.49996V4.16663C6.66666 4.62686 7.03976 4.99996 7.5 4.99996H12.5C12.9602 4.99996 13.3333 4.62686 13.3333 4.16663V2.49996C13.3333 2.03972 12.9602 1.66663 12.5 1.66663Z" stroke="#00A5AB" stroke-width="2" stroke-linecap="round" stroke-linejoin="round"/>
</svg>
