<svg width="20" height="20" viewBox="0 0 20 20" fill="none" xmlns="http://www.w3.org/2000/svg">
<path d="M19.8729 9.61103C19.6942 9.36662 15.4371 3.62641 9.9999 3.62641C4.56274 3.62641 0.305391 9.36662 0.126914 9.6108C-0.0423048 9.84268 -0.0423048 10.1572 0.126914 10.389C0.305391 10.6335 4.56274 16.3737 9.9999 16.3737C15.4371 16.3737 19.6942 10.6334 19.8729 10.3892C20.0423 10.1574 20.0423 9.84267 19.8729 9.61103ZM9.9999 15.055C5.99486 15.055 2.52606 11.2451 1.49922 9.99959C2.52473 8.75299 5.98626 4.94509 9.9999 4.94509C14.0048 4.94509 17.4733 8.75431 18.5006 10.0005C17.4751 11.2471 14.0135 15.055 9.9999 15.055Z" fill="#00A5AB" fill-opacity="0.5"/>
<path d="M10 6.0438C7.81867 6.0438 6.04395 7.81853 6.04395 9.99986C6.04395 12.1812 7.81867 13.9559 10 13.9559C12.1813 13.9559 13.9561 12.1812 13.9561 9.99986C13.9561 7.81853 12.1813 6.0438 10 6.0438ZM10 12.6372C8.5457 12.6372 7.36266 11.4541 7.36266 9.99986C7.36266 8.5456 8.54574 7.36251 10 7.36251C11.4543 7.36251 12.6373 8.5456 12.6373 9.99986C12.6373 11.4541 11.4543 12.6372 10 12.6372Z" fill="#00A5AB" fill-opacity="0.5"/>
</svg>
