<svg width="22" height="22" viewBox="0 0 22 22" fill="none" xmlns="http://www.w3.org/2000/svg">
<path d="M14.6667 3.66666H16.5C16.9862 3.66666 17.4525 3.85982 17.7964 4.20363C18.1402 4.54745 18.3333 5.01377 18.3333 5.5V18.3333C18.3333 18.8196 18.1402 19.2859 17.7964 19.6297C17.4525 19.9735 16.9862 20.1667 16.5 20.1667H5.49999C5.01376 20.1667 4.54744 19.9735 4.20363 19.6297C3.85981 19.2859 3.66666 18.8196 3.66666 18.3333V5.5C3.66666 5.01377 3.85981 4.54745 4.20363 4.20363C4.54744 3.85982 5.01376 3.66666 5.49999 3.66666H7.33332" stroke="black" stroke-width="2" stroke-linecap="round" stroke-linejoin="round"/>
<path d="M13.75 1.83334H8.25001C7.74375 1.83334 7.33334 2.24374 7.33334 2.75V4.58334C7.33334 5.0896 7.74375 5.5 8.25001 5.5H13.75C14.2563 5.5 14.6667 5.0896 14.6667 4.58334V2.75C14.6667 2.24374 14.2563 1.83334 13.75 1.83334Z" stroke="black" stroke-width="2" stroke-linecap="round" stroke-linejoin="round"/>
</svg>
