<svg width="19" height="19" viewBox="0 0 19 19" fill="none" xmlns="http://www.w3.org/2000/svg">
<path d="M15.0084 5.25293H3.00169C2.1728 5.25293 1.50085 5.92488 1.50085 6.75376V14.2579C1.50085 15.0868 2.1728 15.7588 3.00169 15.7588H15.0084C15.8372 15.7588 16.5092 15.0868 16.5092 14.2579V6.75376C16.5092 5.92488 15.8372 5.25293 15.0084 5.25293Z" stroke="#3E41A8" stroke-width="2" stroke-linecap="round" stroke-linejoin="round"/>
<path d="M12.0067 15.7587V3.75205C12.0067 3.35401 11.8486 2.97227 11.5671 2.6908C11.2856 2.40934 10.9039 2.25122 10.5059 2.25122H7.50419C7.10614 2.25122 6.7244 2.40934 6.44294 2.6908C6.16148 2.97227 6.00336 3.35401 6.00336 3.75205V15.7587" stroke="#3E41A8" stroke-width="2" stroke-linecap="round" stroke-linejoin="round"/>
</svg>
