<svg width="20" height="20" viewBox="0 0 20 20" fill="none" xmlns="http://www.w3.org/2000/svg">
<path d="M16.6667 5.83337H3.33334C2.41286 5.83337 1.66667 6.57957 1.66667 7.50004V15.8334C1.66667 16.7538 2.41286 17.5 3.33334 17.5H16.6667C17.5871 17.5 18.3333 16.7538 18.3333 15.8334V7.50004C18.3333 6.57957 17.5871 5.83337 16.6667 5.83337Z" stroke="#00A5AB" stroke-width="2" stroke-linecap="round" stroke-linejoin="round"/>
<path d="M13.3333 17.5V4.16667C13.3333 3.72464 13.1577 3.30072 12.8452 2.98816C12.5326 2.67559 12.1087 2.5 11.6667 2.5H8.33334C7.89131 2.5 7.46739 2.67559 7.15483 2.98816C6.84227 3.30072 6.66667 3.72464 6.66667 4.16667V17.5" stroke="#00A5AB" stroke-width="2" stroke-linecap="round" stroke-linejoin="round"/>
</svg>
