<svg width="19" height="19" viewBox="0 0 19 19" fill="none" xmlns="http://www.w3.org/2000/svg">
<path d="M15.0084 5.25291H3.00169C2.1728 5.25291 1.50085 5.92486 1.50085 6.75375V14.2579C1.50085 15.0868 2.1728 15.7587 3.00169 15.7587H15.0084C15.8372 15.7587 16.5092 15.0868 16.5092 14.2579V6.75375C16.5092 5.92486 15.8372 5.25291 15.0084 5.25291Z" stroke="#00A5AB" stroke-width="2" stroke-linecap="round" stroke-linejoin="round"/>
<path d="M12.0067 15.7588V3.75208C12.0067 3.35404 11.8486 2.9723 11.5671 2.69084C11.2856 2.40937 10.9039 2.25125 10.5059 2.25125H7.50419C7.10614 2.25125 6.7244 2.40937 6.44294 2.69084C6.16148 2.9723 6.00336 3.35404 6.00336 3.75208V15.7588" stroke="#00A5AB" stroke-width="2" stroke-linecap="round" stroke-linejoin="round"/>
</svg>
